{"title":"Mr.Peabody.&amp;.Sherman.2014.1080p.3D.BRRip.HOU..x264.Hun.Eng","uid":10728228,"size":11701116752,"categoryP":"video","categoryS":"3d","magnet":"?xt=urn:btih:56ab60421991e71ff3c39634d3d751f6427d5a70&amp;dn=Mr.Peabody.%26amp%3B.Sherman.2014.1080p.3D.BRRip.HOU..x264.Hun.Eng&amp;tr=udp%3A%2F%2Ftracker.openbittorrent.com%3A80&amp;tr=udp%3A%2F%2Fopen.demonii.com%3A1337&amp;tr=udp%3A%2F%2Ftracker.coppersurfer.tk%3A6969&amp;tr=udp%3A%2F%2Fexodus.desync.com%3A6969","seeders":1,"leechers":0,"uploader":"rinoceros","files":-1,"time":1407597995,"description":"Mr.Peabody.&amp;.Sherman.2014.1080p.3D.BRRip.HOU..x264.Hun.Eng\n &lt;a href=&quot;\nhttp://www.imdb.com/title/tt0864835/&quot; rel=&quot;nofollow&quot; target=&quot;_NEW&quot;&gt;\nhttp://www.imdb.com/title/tt0864835/&lt;/a&gt;\n\nGeneral\nUnique ID                                : 234110633217136853713142840339171439112 (0xB0201160AA2073609CC6B4368C8CF208)\nComplete name                            : F:\\Mr.Peabody.&amp;.Sherman.2014.1080p.3D.BRRip.HOU..x264.Hun.EngMr. Peabody &amp; Sherman 3D (2014) HOU 1080p.mkv\nFormat                                   : Matroska\nFormat version                           : Version 4 / Version 2\nFile size                                : 10.9 GiB\nDuration                                 : 1h 32mn\nOverall bit rate                         : 16.9 Mbps\nEncoded date                             : UTC 2014-08-09 12:56:51\nWriting application                      : mkvmerge v7.1.0 ('Good Love') 64bit built on Jul 27 2014 13:06:55\nWriting library                          : libebml v1.3.0 + libmatroska v1.4.1\nDURATION                                 : 01:21:28.923000000\nNUMBER_OF_FRAMES                         : 1394\nNUMBER_OF_BYTES                          : 4654639\n_STATISTICS_WRITING_APP                  : mkvmerge v7.1.0 ('Good Love') 64bit built on Jul 27 2014 13:06:55\n_STATISTICS_WRITING_DATE_UTC             : 2014-08-09 12:56:51\n_STATISTICS_TAGS                         : BPS DURATION NUMBER_OF_FRAMES NUMBER_OF_BYTES\n\nVideo\nID                                       : 1\nFormat                                   : AVC\nFormat/Info                              : Advanced Video Codec\nFormat profile                           : &lt;a class=&quot;__cf_email__&quot; href=&quot;/cdn-cgi/l/email-protection&quot; data-cfemail=&quot;074f6e606f474b332936&quot;&gt;[email&amp;#160;protected]&lt;/a&gt;&lt;script cf-hash='f9e31' type=&quot;text/javascript&quot;&gt;\n/* &lt;![CDATA[ */!function(){try{var t=&quot;currentScript&quot;in document?document.currentScript:function(){for(var t=document.getElementsByTagName(&quot;script&quot;),e=t.length;e--;)if(t[e].getAttribute(&quot;cf-hash&quot;))return t[e]}();if(t&amp;&amp;t.previousSibling){var e,r,n,i,c=t.previousSibling,a=c.getAttribute(&quot;data-cfemail&quot;);if(a){for(e=&quot;&quot;,r=parseInt(a.substr(0,2),16),n=2;a.length-n;n+=2)i=parseInt(a.substr(n,2),16)^r,e+=String.fromCharCode(i);e=document.createTextNode(e),c.parentNode.replaceChild(e,c)}}}catch(u){}}();/* ]]&gt; */&lt;/script&gt;\nFormat settings, CABAC                   : Yes\nFormat settings, ReFrames                : 4 frames\nCodec ID                                 : V_MPEG4/ISO/AVC\nDuration                                 : 1h 32mn\nBit rate                                 : 14.6 Mbps\nWidth                                    : 1 920 pixels\nHeight                                   : 1 080 pixels\nDisplay aspect ratio                     : 16:9\nFrame rate mode                          : Constant\nFrame rate                               : 23.976 fps\nColor space                              : YUV\nChroma subsampling                       : 4:2:0\nBit depth                                : 8 bits\nScan type                                : Progressive\nBits/(Pixel*Frame)                       : 0.293\nStream size                              : 9.42 GiB (86%)\nTitle                                    : Mr. Peabody &amp; Sherman 3D (2014) HOU 1080p\nWriting library                          : x264 core 133 r2334kMod a3ac64b\nEncoding settings                        : cabac=1 / ref=4 / deblock=1:-3:-3 / analyse=0x3:0x133 / me=umh / subme=10 / psy=1 / fade_compensate=0.00 / psy_rd=0.80:0.00 / mixed_ref=1 / me_range=24 / chroma_me=1 / trellis=2 / 8x8dct=1 / cqm=0 / deadzone=21,11 / fast_pskip=0 / chroma_qp_offset=-2 / threads=6 / lookahead_threads=1 / sliced_threads=0 / nr=0 / decimate=0 / interlaced=0 / bluray_compat=0 / constrained_intra=0 / bframes=9 / b_pyramid=2 / b_adapt=2 / b_bias=0 / direct=3 / weightb=1 / open_gop=0 / weightp=2 / keyint=250 / keyint_min=23 / scenecut=40 / intra_refresh=0 / rc=crf / mbtree=0 / crf=15.0000 / qcomp=0.65 / qpmin=0 / qpmax=69 / qpstep=4 / frame-packing=4 / ip_ratio=1.20 / pb_ratio=1.10 / aq=1:0.85\nDefault                                  : Yes\nForced                                   : No\nDURATION                                 : 01:32:27.584000000\nNUMBER_OF_FRAMES                         : 133009\nNUMBER_OF_BYTES                          : 10332937314\n_STATISTICS_WRITING_APP                  : mkvmerge v7.1.0 ('Good Love') 64bit built on Jul 27 2014 13:06:55\n_STATISTICS_WRITING_DATE_UTC             : 2014-08-09 12:56:51\n_STATISTICS_TAGS                         : BPS DURATION NUMBER_OF_FRAMES NUMBER_OF_BYTES\n\nAudio #1\nID                                       : 2\nFormat                                   : AC-3\nFormat/Info                              : Audio Coding 3\nMode extension                           : CM (complete main)\nFormat settings, Endianness              : Big\nCodec ID                                 : A_AC3\nDuration                                 : 1h 32mn\nBit rate mode                            : Constant\nBit rate                                 : 448 Kbps\nChannel(s)                               : 6 channels\nChannel positions                        : Front: L C R, Side: L R, LFE\nSampling rate                            : 48.0 KHz\nBit depth                                : 16 bits\nCompression mode                         : Lossy\nStream size                              : 296 MiB (3%)\nTitle                                    : 5.1\nLanguage                                 : Hungarian\nDefault                                  : Yes\nForced                                   : No\n\nAudio #2\nID                                       : 3\nFormat                                   : DTS\nFormat/Info                              : Digital Theater Systems\nFormat profile                           : ES\nMode                                     : 16\nFormat settings, Endianness              : Big\nCodec ID                                 : A_DTS\nDuration                                 : 1h 32mn\nBit rate mode                            : Constant\nBit rate                                 : 1 509 Kbps\nChannel(s)                               : 6 channels\nChannel positions                        : Front: L C R, Side: L R, LFE\nSampling rate                            : 48.0 KHz\nBit depth                                : 24 bits\nCompression mode                         : Lossy\nStream size                              : 998 MiB (9%)\nTitle                                    : DTS 5.1\nLanguage                                 : English\nDefault                                  : No\nForced                                   : No\n\nText #1\nID                                       : 4\nFormat                                   : VobSub\nMuxing mode                              : zlib\nCodec ID                                 : S_VOBSUB\nCodec ID/Info                            : The same subtitle format used on DVDs\nTitle                                    : 3D forced\nLanguage                                 : Hungarian\nDefault                                  : Yes\nForced                                   : No\n\nText #2\nID                                       : 5\nFormat                                   : VobSub\nMuxing mode                              : zlib\nCodec ID                                 : S_VOBSUB\nCodec ID/Info                            : The same subtitle format used on DVDs\nTitle                                    : 3d full\nLanguage                                 : Hungarian\nDefault                                  : No\nForced                                   : No\n\nText #3\nID                                       : 6\nFormat                                   : VobSub\nMuxing mode                              : zlib\nCodec ID                                 : S_VOBSUB\nCodec ID/Info                            : The same subtitle format used on DVDs\nTitle                                    : 3D full\nLanguage                                 : English\nDefault                                  : No\nForced                                   : No\n &lt;a href=&quot;\nhttp://www.port.hu/mr._peabody_es_sherman_kalandjai_mr._peabody_&amp;_sherman/pls/fi/films.film_page?i_topic_id=2&amp;i_film_id=147443&amp;i_city_id=-1&amp;i_county_id=-1&quot; rel=&quot;nofollow&quot; target=&quot;_NEW&quot;&gt;\nhttp://www.port.hu/mr._peabody_es_sherman_kalandjai_mr._peabody_&amp;_sherman/pls/fi/films.film_page?i_topic_id=2&amp;i_film_id=147443&amp;i_city_id=-1&amp;i_county_id=-1&lt;/a&gt;","torrent":{"xt":"urn:btih:56ab60421991e71ff3c39634d3d751f6427d5a70","amp;dn":"Mr.Peabody.%26amp%3B.Sherman.2014.1080p.3D.BRRip.HOU..x264.Hun.Eng","amp;tr":["udp%3A%2F%2Ftracker.openbittorrent.com%3A80","udp%3A%2F%2Fopen.demonii.com%3A1337","udp%3A%2F%2Ftracker.coppersurfer.tk%3A6969","udp%3A%2F%2Fexodus.desync.com%3A6969"],"infoHash":"56ab60421991e71ff3c39634d3d751f6427d5a70","infoHashBuffer":{"type":"Buffer","data":[86,171,96,66,25,145,231,31,243,195,150,52,211,215,81,246,66,125,90,112]},"announce":[],"urlList":[]}}